# xmcd
# 
# Track frame offsets:
#     150
#     10794
#     20684
#     38162
#     52423
#     68163
#     92792
#     110537
#     124136
#     142601
#     155313
#     165345
#     180700
#     194005
#     208526
#     219729
#     244956
# 
# Disc length: 3482
# 
# Revision: 0
# Processed by: cddbd v1.5.2PL0 Copyright (c) Steve Scherf et al.
# Submitted via: fre:ac v1.0.17
# 
DISCID=f20d9811
DTITLE=Christian Bleiming - Boogie-Woogie With A Touch Of Blues
DYEAR=2014
DGENRE=Blues
TTITLE0=Boogie Woogie On A Riff
TTITLE1=Your Heart Is As Black As Night
TTITLE2=Blues At Night
TTITLE3=Goin' Up The Country
TTITLE4=Pinetop's Delight
TTITLE5=Women Be Wise
TTITLE6=Backstreet Blues
TTITLE7=TNT Swing
TTITLE8=Baby, What You Want Me To Do
TTITLE9=Rockin' For Jimmy
TTITLE10=Istanbul, Not Constantinople
TTITLE11=C.B.'s Shuffle Blues
TTITLE12=Lloyd and Lloyd-Boogie
TTITLE13=Until My Baby Comes Back Home
TTITLE14=C.B.'s Boogie
TTITLE15=I Just Wanna Make Love To You
TTITLE16=Honky Tonk Train Blues
EXTD=
EXTT0=
EXTT1=
EXTT2=
EXTT3=
EXTT4=
EXTT5=
EXTT6=
EXTT7=
EXTT8=
EXTT9=
EXTT10=
EXTT11=
EXTT12=
EXTT13=
EXTT14=
EXTT15=
EXTT16=
PLAYORDER=
